<?xml version="1.0" standalone="no"?>
<!DOCTYPE svg PUBLIC "-//W3C//DTD SVG 20010904//EN"
 "http://www.w3.org/TR/2001/REC-SVG-20010904/DTD/svg10.dtd">
<svg version="1.0" xmlns="http://www.w3.org/2000/svg"
 width="512.000000pt" height="512.000000pt" viewBox="0 0 512.000000 512.000000"
 preserveAspectRatio="xMidYMid meet">
<metadata>
Created by potrace 1.14, written by Peter Selinger 2001-2017
</metadata>
<g transform="translate(0.000000,512.000000) scale(0.100000,-0.100000)"
fill="#000000" stroke="none">
<path d="M1220 2560 l0 -2000 320 0 320 0 0 73 c0 39 1 398 3 796 l2 724 510
2 c281 1 535 6 565 10 96 13 273 61 344 95 264 121 449 337 541 630 49 156 63
274 60 485 -1 105 -5 208 -9 230 -72 469 -341 793 -749 904 -80 22 -91 24
-207 40 -36 5 -433 10 -882 10 l-818 1 0 -2000z m1625 1441 c148 -40 246 -111
303 -219 57 -108 66 -167 65 -442 -1 -168 -5 -229 -18 -280 -26 -99 -62 -166
-119 -223 -82 -81 -191 -127 -340 -143 -47 -5 -771 -9 -858 -5 -17 1 -18 42
-17 670 l1 669 451 -2 c429 -3 456 -4 532 -25z"/>
</g>
</svg>
